<svg id="Filled" height="512" viewBox="0 0 512 512" width="512" xmlns="http://www.w3.org/2000/svg"><path d="m368 56h-80v-16a16 16 0 0 1 16-16h48a16 16 0 0 1 16 16z" fill="#d13330"/><path d="m248 168h160v112h-160z" fill="#d13330"/><path d="m408 146.087v21.913h-160v-21.913a32 32 0 0 1 5.785-18.351l50.215-71.736h48l50.215 71.736a32 32 0 0 1 5.785 18.351z" fill="#452d23"/><path d="m360 464c0 13.255-14.327 24-32 24s-32-10.745-32-24a24 24 0 0 1 -48 0l8-128-8-56h160l-8 56 8 128a24 24 0 0 1 -48 0z" fill="#452d23"/><path d="m248 264v-32h-128v32l-16 32v160l16 32h128l16-32v-160z" fill="#dadcde"/><path d="m104 296h160v160h-160z" fill="#d13330"/><path d="m204.6 456c14.063-24.8 27.4-48 27.4-88 0-25.119-8.591-49.057-17.648-72h-32c9.057 22.943 17.648 46.881 17.648 72 0 40-13.339 63.2-27.4 88z" fill="#e9eef2"/><path d="m240 146.087v77.913h-120a8 8 0 0 0 -8 8v30.111l-15.155 30.311a7.994 7.994 0 0 0 -.845 3.578v160a7.994 7.994 0 0 0 .845 3.578l16 32a8 8 0 0 0 7.155 4.422h128a8 8 0 0 0 7.155-4.422l.148-.3a31.942 31.942 0 0 0 41.586-7.19c7.339 7.263 18.559 11.912 31.111 11.912s23.772-4.649 31.111-11.908a31.988 31.988 0 0 0 56.889-20.092c0-.167 0-.333-.016-.5l-7.948-127.182 7.883-55.188a7.962 7.962 0 0 0 .071-1.13h.01v-133.913a39.8 39.8 0 0 0 -7.231-22.939l-41.404-59.148h.635a8 8 0 0 0 8-8v-16a24.027 24.027 0 0 0 -24-24h-48a24.027 24.027 0 0 0 -24 24v16a8 8 0 0 0 8 8h.635l-41.4 59.148a39.8 39.8 0 0 0 -7.235 22.939zm-128 301.913v-144h64.889c7.911 20.429 15.111 42.041 15.111 64 0 35.8-10.951 56.8-24.065 80zm82.009-144h14.88c7.911 20.429 15.111 42.041 15.111 64 0 35.8-10.951 56.8-24.065 80h-13.683c11.856-21.7 21.748-44.43 21.748-80 0-22.483-6.435-43.832-13.991-64zm49.047 176h-118.112l-8-16h134.112zm140.944 0a16.019 16.019 0 0 1 -16-16 8 8 0 0 0 -16 0c0 8.673-10.991 16-24 16s-24-7.327-24-16a8 8 0 0 0 -16 0 15.993 15.993 0 0 1 -25.492 12.873l8.647-17.3a7.994 7.994 0 0 0 .845-3.573v-160a7.994 7.994 0 0 0 -.845-3.578l-2.211-4.422h129.832l-6.695 46.869a7.866 7.866 0 0 0 -.065 1.63l7.984 127.726a16.019 16.019 0 0 1 -16 15.775zm-88-440a8.009 8.009 0 0 1 8-8h48a8.009 8.009 0 0 1 8 8v8h-64zm-40 106.087a23.884 23.884 0 0 1 4.338-13.763l47.827-68.324h39.67l47.827 68.324a23.884 23.884 0 0 1 4.338 13.763v13.913h-144zm0 85.913v-56h144v96h-139.056l-4.944-9.889zm0 216h-37.748c11.856-21.7 21.748-44.43 21.748-80 0-22.483-6.435-43.832-13.991-64h29.991zm-139.056-160 8-16h75.056a8 8 0 0 0 0-16h-72v-16h112v16h-8a8 8 0 0 0 0 16h11.056l8 16z"/></svg>