<?xml version="1.0" encoding="iso-8859-1"?>
<!-- Generator: Adobe Illustrator 19.0.0, SVG Export Plug-In . SVG Version: 6.00 Build 0)  -->
<svg version="1.1" id="Capa_1" xmlns="http://www.w3.org/2000/svg" xmlns:xlink="http://www.w3.org/1999/xlink" x="0px" y="0px"
	 viewBox="0 0 480.016 480.016" style="enable-background:new 0 0 480.016 480.016;" xml:space="preserve">
<path style="fill:#FBCC34;" d="M208.01,378.912l2.664-1.24c-11.809-10.53-18.594-25.578-18.664-41.4
	c0.214-30.332,24.264-55.123,54.576-56.256c30.767-0.749,56.373,23.471,57.336,54.232l0.088,33.768c0,8.837,7.163,16,16,16
	s16-7.163,16-16v-32c0,8.837,7.163,16,16,16s16-7.163,16-16v-32l104-48C472.013,126.17,371.052,18.703,241.458,10.608L200.01,8.016
	L163.506,96.24c1.488-0.112,2.984-0.224,4.504-0.224c30.928-0.029,56.023,25.02,56.052,55.948
	c0.029,30.928-25.02,56.023-55.948,56.052c-16.438,0.015-32.052-7.192-42.704-19.712l-26.144,63.2
	c29.049,10.537,44.056,42.629,33.519,71.678s-42.629,44.056-71.678,33.519c-1.558-0.565-3.091-1.2-4.593-1.901L8.01,472.016
	l136-63.312"/>
<path style="fill:#A67C52;" d="M472.29,256.016C472.293,126.17,371.332,18.703,241.738,10.608L200.29,8.016l-25.6,61.824
	c119.512-0.112,224.36,96.8,239.88,212.8L472.29,256.016z"/>
<g>
	<path style="fill:#F15A24;" d="M248.01,280.016c-30.897-0.031-55.969,24.991-55.999,55.888
		c-0.016,15.946,6.774,31.141,18.663,41.768l93.248-43.408C302.977,304.057,278.232,280.049,248.01,280.016z"/>
	<path style="fill:#F15A24;" d="M168.01,208.016c30.928,0,56-25.072,56-56s-25.072-56-56-56c-1.52,0-3.016,0.112-4.504,0.224
		l-38.096,92.064C136.024,200.815,151.604,208.024,168.01,208.016z"/>
	<path style="fill:#F15A24;" d="M136.01,304.016c-0.024-23.481-14.695-44.454-36.744-52.528L56.514,354.8
		c27.998,13.025,61.254,0.887,74.279-27.111C134.242,320.275,136.023,312.194,136.01,304.016z"/>
</g>
<g>
	<circle style="fill:#A67C52;" cx="264.01" cy="192.016" r="16"/>
	<circle style="fill:#A67C52;" cx="176.01" cy="264.016" r="16"/>
	<circle style="fill:#A67C52;" cx="352.01" cy="256.016" r="16"/>
	<circle style="fill:#A67C52;" cx="128.01" cy="384.016" r="16"/>
</g>
<path style="fill:#FBCC34;" d="M144.01,408.016v48c0,8.837,7.163,16,16,16s16-7.163,16-16v-40c0,8.837,7.163,16,16,16
	s16-7.163,16-16v-40"/>
<path d="M241.954,2.624l-41.44-2.608c-3.413-0.216-6.586,1.761-7.896,4.92l-36.504,88.248l-38.096,92.056l-26.152,63.2
	L49.138,351.72L0.618,468.952c-1.692,4.081,0.245,8.762,4.326,10.454c0.972,0.403,2.014,0.61,3.066,0.61
	c1.167,0.004,2.321-0.253,3.376-0.752l124.624-58.016v34.768c0,13.255,10.745,24,24,24s24-10.745,24-24v-17.368
	c12.497,4.418,26.209-2.131,30.627-14.627c0.909-2.571,1.373-5.278,1.373-8.005v-32l79.936-37.208l0.064,21.208
	c0,13.255,10.745,24,24,24s24-10.745,24-24v-9.368c12.497,4.418,26.209-2.131,30.627-14.627c0.909-2.571,1.373-5.278,1.373-8.005
	v-26.88l99.352-45.856c2.833-1.308,4.648-4.143,4.648-7.264C479.792,122.032,375.664,11.196,241.954,2.624L241.954,2.624z
	 M197.282,114.072c0.976,0.744,1.92,1.536,2.84,2.36c0.52,0.472,1.048,0.944,1.544,1.44c0.8,0.752,1.496,1.6,2.216,2.4
	c0.856,0.96,1.664,1.944,2.4,2.976c0.568,0.8,1.16,1.504,1.688,2.296c0.408,0.616,0.76,1.272,1.144,1.904
	c0.488,0.8,0.992,1.648,1.432,2.504c0.288,0.56,0.544,1.136,0.8,1.712c0.472,1,0.92,2.008,1.32,3.04
	c0.184,0.472,0.352,0.96,0.52,1.44c0.416,1.192,0.8,2.4,1.12,3.616c0.096,0.384,0.2,0.8,0.288,1.152
	c0.32,1.336,0.576,2.696,0.8,4.064c0.056,0.32,0.112,0.648,0.152,0.968c0.176,1.4,0.28,2.816,0.336,4.232
	c0,0.344,0.048,0.688,0.056,1.032c0,1.28-0.04,2.576-0.112,3.864c0,0.52,0,1.048-0.08,1.6c-0.064,0.72-0.2,1.432-0.296,2.152
	c-0.247,1.735-0.589,3.455-1.024,5.152c-0.248,1-0.512,1.992-0.8,2.968c-0.376,1.16-0.8,2.312-1.256,3.432
	c-0.256,0.624-0.56,1.232-0.848,1.848c-0.814,1.753-1.733,3.454-2.752,5.096c-0.52,0.8-1.032,1.64-1.6,2.4s-1.136,1.6-1.736,2.32
	c-1.117,1.396-2.308,2.732-3.568,4c-0.48,0.472-1,0.904-1.496,1.36c-1.067,0.96-2.155,1.872-3.264,2.736
	c-0.6,0.456-1.192,0.928-1.816,1.36c-1.492,1.038-3.041,1.992-4.64,2.856c-0.8,0.408-1.56,0.8-2.352,1.136
	c-1.067,0.496-2.133,0.952-3.2,1.368c-0.872,0.328-1.728,0.68-2.616,0.96c-1.75,0.554-3.532,1-5.336,1.336
	c-0.76,0.152-1.544,0.248-2.312,0.36c-1.264,0.168-2.528,0.312-3.784,0.384c-0.576,0-1.16,0.072-1.744,0.088
	c-0.888,0-1.768-0.04-2.648-0.072c-2.179-0.063-4.352-0.271-6.504-0.624c-0.616-0.104-1.24-0.16-1.856-0.288
	c-2.591-0.544-5.133-1.301-7.6-2.264c-0.544-0.208-1.072-0.472-1.6-0.704c-2.153-0.923-4.233-2.006-6.224-3.24
	c-0.408-0.248-0.8-0.464-1.224-0.728c-2.274-1.52-4.415-3.231-6.4-5.112c-0.136-0.12-0.256-0.264-0.392-0.392l34.096-82.4
	c9.816,0.208,19.338,3.385,27.312,9.112C196.578,113.512,196.93,113.792,197.282,114.072L197.282,114.072z M104.746,263.04
	c1.688,1.011,3.31,2.128,4.856,3.344c0.656,0.512,1.272,1.08,1.896,1.6c1.205,1.047,2.356,2.155,3.448,3.32
	c0.576,0.616,1.144,1.24,1.688,1.888c1.102,1.316,2.13,2.691,3.08,4.12c0.368,0.536,0.76,1.056,1.104,1.6
	c2.561,4.152,4.473,8.671,5.672,13.4c0.128,0.48,0.2,0.968,0.304,1.448c0.417,1.898,0.722,3.818,0.912,5.752
	c0.064,0.72,0.112,1.448,0.144,2.168c0.133,2.18,0.115,4.367-0.056,6.544v0.464c-0.248,2.389-0.678,4.756-1.288,7.08
	c-0.12,0.48-0.232,0.968-0.368,1.44c-0.643,2.22-1.445,4.391-2.4,6.496c-0.16,0.352-0.336,0.704-0.504,1.056
	c-2.209,4.572-5.124,8.768-8.64,12.432l-0.056,0.064c-1.768,1.823-3.678,3.503-5.712,5.024l-0.488,0.368
	c-2.006,1.478-4.124,2.797-6.336,3.944c-0.184,0.104-0.376,0.184-0.568,0.28c-4.513,2.262-9.358,3.788-14.352,4.52
	c-0.424,0.064-0.84,0.144-1.264,0.192c-2.031,0.247-4.074,0.368-6.12,0.36c-0.48,0-0.952-0.08-1.432-0.096
	c-1.758-0.052-3.513-0.196-5.256-0.432c-0.536-0.08-1.064-0.24-1.6-0.344c-1.44-0.264-2.872-0.568-4.288-0.968l36.368-87.92
	l0.16,0.08C104.01,262.528,104.362,262.808,104.746,263.04L104.746,263.04z M128.01,392.016c-4.418,0-8-3.582-8-8s3.582-8,8-8
	c4.418,0,8,3.582,8,8S132.428,392.016,128.01,392.016z M212.362,368.056l-0.16-0.192c-1.702-1.937-3.246-4.007-4.616-6.192
	c-0.224-0.352-0.472-0.688-0.688-1.04c-1.279-2.155-2.392-4.404-3.328-6.728c-0.184-0.472-0.376-0.944-0.552-1.416
	c-0.871-2.343-1.559-4.75-2.056-7.2c-0.08-0.416-0.136-0.8-0.208-1.256c-0.471-2.622-0.72-5.28-0.744-7.944
	c0-1.4,0.072-2.792,0.2-4.176c0-0.136,0-0.28,0-0.424c2.497-21.851,19.206-39.383,40.912-42.928c0.424-0.056,0.8-0.144,1.264-0.192
	c0.872-0.104,1.752-0.144,2.632-0.2s1.984-0.152,2.992-0.152h0.056c2.682,0.024,5.358,0.271,8,0.736
	c0.416,0.064,0.8,0.104,1.24,0.184c2.173,0.446,4.311,1.045,6.4,1.792c0.8,0.288,1.68,0.56,2.488,0.888
	c1.681,0.708,3.321,1.509,4.912,2.4c1.056,0.592,2.112,1.192,3.128,1.856c1.344,0.88,2.632,1.832,3.888,2.84
	c1.013,0.821,1.992,1.685,2.936,2.592c1.196,1.124,2.334,2.31,3.408,3.552c0.728,0.856,1.4,1.752,2.072,2.656
	c1.161,1.535,2.229,3.138,3.2,4.8c0.352,0.616,0.648,1.264,0.976,1.896c1.088,2.089,2.021,4.255,2.792,6.48
	c0.064,0.176,0.096,0.368,0.16,0.544c0.863,2.66,1.492,5.39,1.88,8.16L212.362,368.056z M364.658,296.752
	c-2.833,1.308-4.648,4.143-4.648,7.264v32c0,4.418-3.582,8-8,8s-8-3.582-8-8v-16c0-4.418-3.582-8-8-8s-8,3.582-8,8v48
	c0,4.418-3.582,8-8,8s-8-3.582-8-8l-0.056-34c-0.864-32.565-26.186-59.216-58.664-61.744c-0.568-0.048-1.152-0.048-1.728-0.088
	c-1.2-0.056-2.36-0.168-3.552-0.168c-0.272,0-0.536,0.04-0.8,0.04s-0.544,0-0.8,0c-0.896,0-1.768,0.144-2.656,0.2
	s-2,0.112-2.992,0.224s-2.032,0.304-3.04,0.472c-1.136,0.184-2.272,0.36-3.392,0.6c-0.728,0.168-1.44,0.376-2.16,0.56
	c-1.384,0.352-2.768,0.72-4.112,1.168c-0.352,0.112-0.688,0.256-1.032,0.376c-21.433,7.483-37.315,25.737-41.76,48
	c-0.056,0.272-0.08,0.56-0.128,0.8c-0.32,1.744-0.608,3.504-0.8,5.296c-0.112,1.08-0.12,2.184-0.168,3.28s-0.16,1.976-0.16,2.984
	v0.296c0,2.064,0.136,4.112,0.344,6.144c0.064,0.592,0.176,1.176,0.248,1.768c0.2,1.48,0.416,2.96,0.72,4.424
	c0.152,0.8,0.352,1.536,0.536,2.304c0.312,1.264,0.64,2.512,1.016,3.752c0.256,0.8,0.528,1.6,0.8,2.4
	c0.416,1.168,0.864,2.325,1.344,3.472c0.336,0.8,0.664,1.6,1.032,2.4c0.536,1.152,1.136,2.28,1.744,3.4
	c0.384,0.72,0.744,1.44,1.16,2.144c0.8,1.36,1.696,2.688,2.6,4c0.28,0.4,0.528,0.8,0.8,1.224c1.147,1.552,2.357,3.061,3.632,4.528
	v37.744c0,4.418-3.582,8-8,8s-8-3.582-8-8s-3.582-8-8-8s-8,3.582-8,8v40c0,4.418-3.582,8-8,8s-8-3.582-8-8v-48
	c-0.033-3.794-2.762-7.027-6.496-7.696c9.055-9.68,8.547-24.868-1.133-33.922c-9.68-9.055-24.868-8.547-33.922,1.133
	s-8.547,24.868,1.133,33.922c4.148,3.88,9.537,6.163,15.21,6.443l-22.768,10.608v-10.488c0-4.418-3.582-8-8-8s-8,3.582-8,8v16
	c0.05,0.601,0.171,1.195,0.36,1.768l-65.112,30.312l16.6-40.08h0.152h16c4.418,0,8-3.582,8-8s-3.582-8-8-8h-9.544l14.456-34.952
	c0.688,0.216,1.392,0.336,2.08,0.528c1.384,0.392,2.768,0.8,4.176,1.072c0.8,0.168,1.6,0.264,2.4,0.4
	c1.456,0.24,2.92,0.488,4.392,0.624c0.912,0.088,1.824,0.104,2.736,0.152c1.096,0.056,2.184,0.176,3.288,0.176
	c0.288,0,0.56-0.04,0.84-0.04c0.848,0,1.696-0.088,2.544-0.128c1.416-0.08,2.824-0.16,4.216-0.328c0.264,0,0.528,0,0.8-0.056
	c0.888-0.12,1.76-0.312,2.64-0.472s1.6-0.248,2.4-0.416c1.304-0.272,2.576-0.632,3.848-0.992c1.448-0.4,2.872-0.864,4.272-1.368
	c0.92-0.336,1.856-0.64,2.76-1.016c1.152-0.472,2.272-1.024,3.4-1.6c0.552-0.272,1.12-0.52,1.672-0.8
	c1.192-0.616,2.344-1.288,3.496-1.984c0.424-0.256,0.856-0.504,1.272-0.8c1.192-0.752,2.352-1.552,3.488-2.4l0.944-0.704
	c1.192-0.904,2.352-1.84,3.48-2.824l0.504-0.456c4.811-4.297,8.95-9.291,12.28-14.816c0.296-0.496,0.616-0.984,0.904-1.488
	c0.52-0.92,0.992-1.872,1.472-2.824s0.84-1.688,1.232-2.552s0.688-1.6,1.008-2.4c0.437-1.099,0.845-2.211,1.224-3.336
	c0.224-0.68,0.456-1.36,0.656-2.048c0.408-1.36,0.752-2.736,1.064-4.128c0.12-0.536,0.264-1.056,0.368-1.6
	c0.336-1.712,0.603-3.448,0.8-5.208c0-0.272,0.088-0.536,0.112-0.8c0-0.104,0-0.208,0.048-0.312c0-0.272,0-0.544,0-0.8
	c0.136-1.744,0.264-3.496,0.264-5.28c0-0.632-0.128-1.248-0.144-1.872c-0.056-1.6-0.208-3.16-0.376-4.728
	c-0.176-1.696-0.36-3.376-0.672-5.032c-0.28-1.464-0.656-2.896-1.032-4.336c-0.432-1.648-0.856-3.28-1.408-4.88
	c-0.504-1.448-1.12-2.84-1.728-4.24s-1.248-2.96-2-4.384s-1.648-2.848-2.52-4.248c-0.8-1.256-1.528-2.52-2.4-3.72
	c-1.04-1.44-2.216-2.776-3.376-4.128c-0.888-1.04-1.736-2.104-2.696-3.088c-1.288-1.32-2.704-2.512-4.112-3.72
	c-1.008-0.872-1.968-1.784-3.04-2.592c-1.464-1.112-3.056-2.072-4.632-3.064c-1.168-0.736-2.28-1.52-3.504-2.184
	c-0.256-0.136-0.48-0.32-0.736-0.456l18.68-45.152c0.248,0.2,0.512,0.352,0.76,0.544c0.552,0.424,1.128,0.8,1.696,1.208
	c1.312,0.952,2.632,1.872,4,2.712c0.512,0.312,1.04,0.584,1.6,0.88c1.448,0.8,2.912,1.6,4.424,2.344
	c0.576,0.272,1.16,0.504,1.744,0.752c1.464,0.64,2.936,1.256,4.448,1.776c0.728,0.256,1.472,0.464,2.208,0.696
	c1.376,0.424,2.752,0.8,4.16,1.16c0.92,0.216,1.856,0.384,2.784,0.56c1.248,0.232,2.496,0.456,3.76,0.616
	c1.08,0.136,2.16,0.224,3.248,0.312s2.336,0.16,3.52,0.192c0.456,0,0.912,0.072,1.376,0.072c0.736,0,1.448-0.088,2.184-0.112
	c1.04,0,2.088-0.072,3.136-0.16s2.136-0.216,3.2-0.36c0.8-0.104,1.6-0.144,2.456-0.28c0.344-0.056,0.664-0.192,1.008-0.256
	c2.458-0.455,4.886-1.056,7.272-1.8c1.328-0.416,2.592-0.928,3.872-1.424c1.104-0.424,2.184-0.88,3.256-1.36
	c4.997-2.253,9.681-5.144,13.936-8.6l0.8-0.704c4.498-3.758,8.453-8.123,11.752-12.968c0.16-0.232,0.304-0.472,0.456-0.696
	c1.867-2.83,3.504-5.805,4.896-8.896c0.304-0.672,0.624-1.328,0.904-2.008c0.592-1.44,1.128-2.888,1.6-4.384
	c0.6-1.816,1.104-3.672,1.536-5.552c0.128-0.576,0.36-1.112,0.472-1.688c0.2-1.032,0.272-2.072,0.424-3.104
	c0.184-1.216,0.392-2.4,0.504-3.64c0.064-0.728,0.072-1.44,0.112-2.16c0.072-1.28,0.192-2.544,0.192-3.84
	c0-0.368-0.048-0.728-0.056-1.104c0-0.608-0.064-1.208-0.088-1.816c-0.08-1.736-0.208-3.448-0.424-5.144
	c-0.072-0.584-0.176-1.16-0.264-1.736c-0.256-1.672-0.568-3.328-0.952-4.96c-0.152-0.648-0.328-1.28-0.496-1.92
	c-0.405-1.504-0.864-2.984-1.376-4.44c-0.264-0.752-0.528-1.496-0.8-2.232c-0.504-1.28-1.064-2.536-1.648-3.768
	c-0.392-0.856-0.8-1.704-1.216-2.536c-0.56-1.064-1.176-2.088-1.792-3.112s-1.072-1.856-1.672-2.744s-1.224-1.68-1.84-2.512
	s-1.256-1.816-1.968-2.68c-7.909-9.61-18.453-16.7-30.336-20.4c-0.24-0.072-0.496-0.12-0.736-0.192
	c-1.72-0.512-3.456-0.976-5.216-1.344c-0.704-0.144-1.424-0.224-2.136-0.352c-1.192-0.208-2.4-0.448-3.584-0.584l4.392-10.624h0.584
	c84.712,0.533,162.273,47.591,201.872,122.48c-2.328,0.487-4.312,1.997-5.4,4.112l-8,16c-1.975,3.954-0.37,8.761,3.584,10.736
	c3.954,1.975,8.761,0.37,10.736-3.584l6.24-12.48c8.734,19.807,14.544,40.778,17.248,62.256L364.658,296.752z M421.85,270.352
	C403.848,153.213,304.867,65.57,186.41,61.88l18.832-45.52l35.744,2.232c123.318,7.92,220.123,108.789,222.968,232.328
	L421.85,270.352z"/>
<path d="M228.434,232.856l-16,8c-3.954,1.975-5.559,6.782-3.584,10.736c1.975,3.954,6.782,5.559,10.736,3.584l16-8
	c3.954-1.975,5.559-6.782,3.584-10.736C237.195,232.486,232.389,230.881,228.434,232.856L228.434,232.856z"/>
<path d="M307.586,232.856l-16-8c-3.954-1.975-8.761-0.37-10.736,3.584c-1.975,3.954-0.37,8.761,3.584,10.736l16,8
	c3.954,1.975,8.761,0.37,10.736-3.584C313.145,239.638,311.541,234.831,307.586,232.856z"/>
<path d="M252.434,143.216c3.952,1.976,8.757,0.374,10.733-3.578c0.001-0.002,0.002-0.004,0.003-0.006l8-16
	c1.975-3.954,0.37-8.761-3.584-10.736c-3.954-1.975-8.761-0.37-10.736,3.584l-8,16c-1.976,3.952-0.374,8.757,3.578,10.733
	C252.43,143.214,252.432,143.215,252.434,143.216L252.434,143.216z"/>
<path d="M328.01,176.016c1.238,0,2.46-0.288,3.568-0.84l16-8c3.954-1.975,5.559-6.782,3.584-10.736
	c-1.975-3.954-6.782-5.559-10.736-3.584l-16,8c-3.954,1.971-5.562,6.774-3.592,10.729
	C322.19,174.305,324.971,176.022,328.01,176.016z"/>
<path d="M171.586,344.856l-16-8c-3.954-1.975-8.761-0.37-10.736,3.584c-1.975,3.954-0.37,8.761,3.584,10.736l16,8
	c3.954,1.975,8.761,0.37,10.736-3.584C177.145,351.638,175.541,346.831,171.586,344.856z"/>
<path d="M332.434,280.816l-16,8c-3.954,1.975-5.559,6.782-3.584,10.736c1.975,3.954,6.782,5.559,10.736,3.584l16-8
	c3.954-1.975,5.559-6.782,3.584-10.736C341.195,280.446,336.389,278.841,332.434,280.816z"/>
<path d="M288.01,192.016c0-13.255-10.745-24-24-24s-24,10.745-24,24s10.745,24,24,24S288.01,205.271,288.01,192.016z
	 M264.01,200.016c-4.418,0-8-3.582-8-8s3.582-8,8-8s8,3.582,8,8S268.428,200.016,264.01,200.016z"/>
<path d="M176.01,240.016c-13.255,0-24,10.745-24,24c0,13.255,10.745,24,24,24s24-10.745,24-24
	C200.01,250.761,189.265,240.016,176.01,240.016z M176.01,272.016c-4.418,0-8-3.582-8-8s3.582-8,8-8s8,3.582,8,8
	S180.428,272.016,176.01,272.016z"/>
<path d="M352.01,232.016c-13.255,0-24,10.745-24,24c0,13.255,10.745,24,24,24s24-10.745,24-24
	C376.01,242.761,365.265,232.016,352.01,232.016z M352.01,264.016c-4.418,0-8-3.582-8-8c0-4.418,3.582-8,8-8s8,3.582,8,8
	C360.01,260.434,356.428,264.016,352.01,264.016z"/>
<g>
</g>
<g>
</g>
<g>
</g>
<g>
</g>
<g>
</g>
<g>
</g>
<g>
</g>
<g>
</g>
<g>
</g>
<g>
</g>
<g>
</g>
<g>
</g>
<g>
</g>
<g>
</g>
<g>
</g>
</svg>
